<?xml version="1.0" encoding="UTF-8"?>
<!DOCTYPE svg PUBLIC "-//W3C//DTD SVG 1.1//EN" "http://www.w3.org/Graphics/SVG/1.1/DTD/svg11.dtd">
<!-- Creator: CorelDRAW 2020 (64 Bit) -->
<svg xmlns="http://www.w3.org/2000/svg" xml:space="preserve" width="254mm" height="254mm" version="1.1" style="shape-rendering:geometricPrecision; text-rendering:geometricPrecision; image-rendering:optimizeQuality; fill-rule:evenodd; clip-rule:evenodd"
viewBox="0 0 25400 25400"
 xmlns:xlink="http://www.w3.org/1999/xlink"
 xmlns:xodm="http://www.corel.com/coreldraw/odm/2003">
 <defs>
  <style type="text/css">
   <![CDATA[
    .fil0 {fill:#08A79D;fill-rule:nonzero}
    .fil2 {fill:#808184;fill-rule:nonzero}
    .fil1 {fill:#8BC63E;fill-rule:nonzero}
   ]]>
  </style>
 </defs>
 <g id="Camada_x0020_1">
  <metadata id="CorelCorpID_0Corel-Layer"/>
  <g id="_2654834690272">
   <path class="fil0" d="M10647.98 10777.21c0,-344.63 0.42,-689.25 -0.65,-1033.82 -0.11,-36.04 8.45,-58.88 42.27,-77.95 171.28,-96.58 340.92,-195.95 511.16,-294.5 184.84,-107.01 369.69,-214.08 554.47,-321.27 22.08,-12.73 44.03,-25.64 65.63,-39.16 16.15,-10.03 31.23,-10.21 48.37,-1.46 136.66,69.62 273.48,138.94 410.49,207.91 24.36,12.33 33.05,17.62 0.82,36.06 -209.14,119.45 -416.65,241.83 -625.03,362.58 -151.15,87.58 -298.26,184.08 -455.98,257.63 -99.97,46.56 -111.19,109.82 -110.19,204.21 4.29,397.7 1.76,795.51 1.76,1193.26 0,101.08 1.19,202.15 -0.35,303.12 -0.41,29.58 9.76,44.73 35.86,59.58 284.29,162.25 567.7,325.97 851.11,489.85 82.23,47.55 162.94,97.92 245.59,144.69 28.71,16.33 28.94,20.32 -0.76,36.88 -127.73,71.31 -254.17,144.86 -379.8,219.77 -20.06,11.91 -31.28,9.62 -49.83,-1.18 -207.09,-119.92 -414.95,-238.56 -622.56,-357.78 -154.38,-88.52 -308.18,-178.21 -463.28,-265.5 -40.73,-22.94 -60.75,-48.65 -60.4,-99.37 2.47,-341.17 1.3,-682.39 1.3,-1023.55z"/>
   <path class="fil0" d="M9804.28 9427.48c11.45,-124.8 3.76,-249.94 4.05,-374.85 0.06,-36.23 12.79,-55.94 42.44,-72.67 190.61,-107.72 380.91,-215.96 570.73,-325.08 210.27,-120.8 419.95,-242.55 629.74,-364.23 203.86,-118.22 407.79,-236.5 611.01,-355.83 25.13,-14.75 43.96,-16.44 70.15,-1.24 333.24,193.3 667.24,385.24 1000.89,577.9 26.53,15.26 49.6,39.09 77.77,48.31 73.32,24.01 85.65,74.19 86.36,144.46 1.35,124.85 14.43,249.59 22.3,374.39 0.81,13.14 8.92,29.58 -3.05,38.8 -13.67,10.61 -25.12,-4.99 -36.22,-11.4 -332.3,-191.18 -664.48,-382.65 -996.5,-574.42 -46.19,-26.66 -92.61,-53.2 -136.47,-83.41 -36.68,-25.2 -69.37,-18.86 -103.83,1.34 -225.53,131.95 -450.83,264.32 -676.76,395.57 -225.3,130.9 -450.81,261.45 -677.52,389.89 -31.4,17.79 -36.39,38.81 -36.32,69.97 0.58,409.89 0.35,819.74 0.28,1229.65 0,67.44 -1.52,69.96 -57.17,38.45 -121.11,-68.74 -240.14,-141.23 -361.36,-209.74 -20.25,-11.45 -25.88,-23.08 -25.64,-43.49 2.99,-221.07 -4.53,-442.19 3.99,-663.31 2.16,-56.29 -3.48,-112.84 -2.99,-169.24 0.16,-20.54 -14.86,-30.87 -21.5,-46.54 0,11.5 6.17,20.41 16.85,14.49 12.85,-7.22 7.87,-18.79 -1.23,-27.77z"/>
   <path class="fil0" d="M12105.82 10531.4c0,216.08 0.7,432.15 -0.71,648.17 -0.24,35.11 10.1,56.05 41.26,73.78 225.53,128.43 449.95,258.69 674.83,388.31 171.98,99.13 345.73,195.29 515.02,298.66 55.94,34.11 116.82,61.81 166.83,103.48 35.04,29.18 62.76,19.2 90.16,0.48 134.02,-91.17 276.13,-169.54 417.42,-247.43 139.05,-76.72 271.14,-165.48 413.84,-235.98 83.94,-41.43 161.76,-95.14 242.07,-143.93 13.32,-8.15 28.77,-19.6 41.74,-13.19 15.38,7.57 6.99,27.64 7.04,41.96 0.47,133.72 -1.81,267.55 1.35,401.28 0.95,38.68 -13.79,58.1 -44.31,75.36 -129.97,73.67 -259.34,148.45 -388.83,223 -223.48,128.78 -447.95,256.18 -669.65,388.08 -47.02,27.93 -81.6,27.98 -127.56,1.04 -241.2,-141.51 -484.34,-279.94 -726.36,-419.99 -223.28,-129.25 -445.81,-259.69 -669.05,-388.94 -130.67,-75.61 -261.63,-150.76 -393.58,-224.07 -28.12,-15.61 -37.04,-33.86 -36.99,-65.09 0.88,-430.39 0.83,-860.84 -0.05,-1291.23 -0.07,-28.99 8.22,-47.31 32.81,-63.15 121.33,-78.13 241.84,-157.49 362.17,-237.21 13.28,-8.8 27.96,-20.9 41.33,-14.51 15.49,7.41 8.87,27.73 8.87,42.63 0.29,219.48 0.17,438.95 0.17,658.49l0.18 0z"/>
   <path class="fil1" d="M13111.02 10178.11c147.28,-85.11 289.81,-167.34 432.16,-249.82 187.89,-108.82 375.78,-217.84 563.69,-326.73 61.75,-35.74 122.57,-73.36 185.9,-106.06 25.24,-13.03 35.45,-27.35 35.4,-54.71 -0.36,-534.99 -0.53,-1069.97 0.47,-1604.98 0.12,-50.3 -41.8,-62.03 -70.15,-76.82 -186.43,-97.39 -367,-205.23 -547.74,-312.01 -170.57,-100.83 -346.68,-192 -514.37,-297.77 -25.24,-15.91 -35.34,-17.56 -1.13,-36.74 128.79,-72.1 255.53,-147.81 382.62,-222.84 17.14,-10.1 30.87,-8.62 47.49,1 212.84,123.52 425.92,246.6 639,369.64 149.92,86.51 299.61,173.52 450.28,258.56 35.69,20.14 54.54,41.45 54.36,86.94 -1.16,339.46 1.47,678.99 1.71,1018.45 0.29,356.43 -0.83,712.79 -0.71,1069.16 0,22.94 -6.16,37.15 -27.47,49.3 -252.17,143.7 -503.88,288.22 -755.23,433.27 -129.2,74.61 -257.58,150.62 -386.02,226.51 -15.25,9.05 -27.52,16.62 -46.72,6.76 -141.58,-72.97 -283.82,-144.82 -425.75,-217.13 -4.34,-2.23 -7.92,-6.11 -17.79,-13.98z"/>
   <path class="fil1" d="M15173.67 8815.3c83.88,47.77 164.71,93.56 245.18,139.82 42.61,24.48 83.3,52.88 127.56,73.85 46.44,21.94 65.32,49.72 64.93,104.94 -3,409.84 -2.07,819.69 -0.77,1229.48 0.12,33.33 -9.33,52.47 -38.04,68.85 -207.67,118.74 -414.65,238.73 -621.69,358.48 -242.49,140.17 -484.86,280.47 -727.29,420.69 -159.91,92.59 -319.91,184.97 -479.47,278.13 -17.14,9.98 -29.86,8.87 -46.84,-1 -342.98,-199.94 -682.86,-405.5 -1031.54,-594.97 -109.77,-59.7 -154.84,-122.52 -146.39,-245.9 6.87,-101.43 -13.1,-204.69 -20.72,-307.12 -0.99,-13.15 -8.33,-29.71 3.4,-38.97 15.67,-12.33 28.95,4.46 41.15,11.56 314.7,180.9 629.1,362.29 943.37,543.97 63.11,36.51 125.44,74.36 187.9,111.94 29.76,17.85 56.41,20.43 89.27,1.34 355.39,-205.72 711.75,-409.59 1067.47,-614.69 100.02,-57.7 197.82,-119.17 298.43,-175.69 26.65,-15.03 36.04,-31.47 36.04,-60.24 0.18,-229.73 1.48,-459.44 2.18,-689.18 0.41,-128.44 -0.12,-256.81 1.11,-385.2 0.77,-74.78 -10.22,-149.97 4.76,-230.09z"/>
   <path class="fil0" d="M13757.59 8625.18c0,214.37 -0.83,428.8 0.75,643.18 0.3,33.58 -11.38,53.23 -38.62,70.73 -118.34,75.96 -235.84,153.38 -353.43,230.57 -12.68,8.27 -23.6,23.65 -40.39,15.96 -18.48,-8.45 -9.33,-27.47 -9.38,-41.43 -0.42,-423.64 -4.23,-847.34 2.93,-1270.86 1.46,-86.11 -46.54,-113.17 -100.32,-144.47 -164.88,-95.84 -332.06,-187.77 -497.54,-282.68 -189.42,-108.66 -377.91,-218.89 -566.87,-328.38 -82.29,-47.72 -165.36,-94.38 -246.89,-143.4 -22.9,-13.79 -43.15,-18.37 -66.51,-5.11 -89.33,50.54 -178.9,100.67 -267.96,151.81 -88.87,50.99 -177.21,102.84 -265.68,154.54 -109.88,64.16 -219.65,128.67 -329.54,192.83 -77.72,45.38 -155.61,90.41 -233.45,135.6 -27.99,16.27 -42.61,14.74 -42.2,-24.25 1.47,-142.28 1.88,-284.68 -0.3,-427.03 -0.53,-33.69 20.67,-44.79 41.85,-57.12 174.58,-101.32 349.51,-202.03 524.67,-302.42 191.42,-109.65 383.72,-217.94 574.19,-329.19 22.32,-13.08 34.11,-11.38 54.13,0.18 187.96,108.66 376.92,215.61 565.04,324.02 279.48,160.97 558.6,322.55 837.78,484.1 139.52,80.77 277.94,163.53 418.87,241.61 31.29,17.32 39.57,35.64 39.39,68.03 -1.05,214.44 -0.52,428.8 -0.52,643.18z"/>
  </g>
  <g id="_2654834691040">
   <path class="fil1" d="M4703.8 13516.02l0 2440.22 -316.11 0 0 -1736.61c0,-26.03 0.94,-53.99 2.48,-83.17 1.92,-29.57 3.87,-59.7 6.1,-90.28l-812.36 1490.34c-28.26,55.69 -71.83,83.25 -130.58,83.25l-51.14 0c-58.76,0 -102.01,-27.56 -128.96,-83.25l-827.65 -1495.35c6.63,63.46 10.18,122.94 10.18,178.46l0 1736.61 -317.71 0 0 -2440.22 268.46 0c31.74,0 56.21,3.15 73.66,9.5 17.84,6.02 34.3,23.55 50.2,51.82l815.84 1461.37c15.59,29.58 30.5,60.7 44.18,93.45 13.35,32.73 26.4,65.72 39.14,98.47 23.8,-66.72 51.45,-131.22 83.19,-193.85l800.3 -1459.44c14.6,-28.27 30.83,-45.8 48.27,-51.82 17.76,-6.35 42.25,-9.5 74.06,-9.5l268.45 0z"/>
   <polygon class="fil1" points="8389.45,15956.26 8026.01,15956.26 8026.01,13516.02 8389.45,13516.02 "/>
   <path class="fil1" d="M13701.43 14768.33l0 951.81c-123.25,88.36 -254.77,154.07 -394.24,198.03 -139.17,43.48 -291,65.41 -455.26,65.41 -197.02,0 -375.26,-30.82 -534.43,-91.83 -159.15,-61.32 -294.77,-146.8 -406.89,-256.7 -112.22,-109.89 -198.64,-241.11 -259.26,-394.26 -60.71,-152.82 -90.89,-321.19 -90.89,-504.53 0,-184.63 29.18,-353.92 87.34,-507.29 58.45,-153.54 142.01,-285.06 250.68,-394.32 108.95,-109.29 240.48,-194.16 395.25,-254.86 154.68,-60.62 328.13,-90.83 520.75,-90.83 97.46,0 187.65,7.27 270.9,21.94 83.56,14.9 160.8,35.92 232.23,62.87 71.21,27.34 137.32,59.76 198,97.92 60.34,37.76 116.86,80.71 168.98,128.35l-103.56 162.95c-15.9,26.03 -36.83,42.56 -62.85,49.28 -26.12,6.94 -54.69,0.61 -85.18,-18.78 -29.51,-16.84 -61.96,-36.52 -97.55,-59.46 -35.9,-22.55 -78.15,-43.47 -127.43,-62.87 -49.5,-19.07 -107.03,-35.59 -172.44,-49.26 -65.8,-13.68 -143.34,-20.31 -232.92,-20.31 -133.76,0 -254.47,21.93 -361.89,65.41 -107.66,43.63 -199.47,106.11 -275.39,187.81 -76.01,81.63 -134.09,179.79 -175.09,294.78 -40.69,115 -61.01,243.65 -61.01,386.67 0,149.36 21.32,283.43 64.49,401.9 42.93,118.17 103.88,218.57 182.73,300.57 78.76,82.25 174.36,144.88 287.21,187.74 112.74,43.26 238.55,64.8 378.02,64.8 54.29,0 105.1,-3.18 152.21,-9.5 46.96,-6.02 91.75,-14.91 135.01,-26.4 42.93,-11.06 84.56,-25.42 124.87,-42.25 40.01,-17.14 80.01,-35.84 119.79,-56.22l0 -511.49 -360.27 0c-22.55,0 -41.02,-6.72 -55.3,-20.38 -14.05,-13.68 -21.23,-30.43 -21.23,-51.14l0 -205.56 764.62 0z"/>
   <path class="fil1" d="M17599.62 14692.08c92.75,0 174.76,-11.36 245.27,-33.91 70.91,-22.94 130.3,-54.68 177.63,-96.38 47.65,-41.25 83.25,-90.44 107.04,-147.73 23.87,-57.15 35.91,-120.33 35.91,-189.29 0,-140.41 -46.35,-246.52 -138.55,-317.71 -92.43,-71.52 -230.91,-107.05 -415.57,-107.05l-341.5 0 0 892.07 329.77 0zm1138.35 1264.14l-322.75 0c-64.49,0 -111.6,-25.42 -141.09,-76.53l-603.3 -846.04c-19.09,-28.26 -40.08,-48.66 -62.94,-60.31 -22.57,-12.21 -56.54,-17.84 -101.94,-17.84l-236.1 0 0 1000.72 -361.8 0 0 -2440.25 703.3 0c157.62,0 293.24,16.14 407.07,48.58 113.77,32.14 207.75,78.15 282.05,137.61 74.06,59.39 129.05,131.22 164.95,215.08 35.53,83.89 53.28,177.93 53.28,282.11 0,84.88 -12.98,164.58 -38.98,239.56 -26.03,74.61 -64.26,141.73 -114.78,201.12 -50.42,59.76 -111.73,110.9 -184.26,154.07 -72.35,42.86 -154.68,75.59 -246.52,98.53 45.49,26.95 84.57,65.04 117.32,113.68l686.49 949.91z"/>
   <polygon class="fil1" points="23283.33,15662.39 23281.71,15956.24 21769.44,15956.24 21769.44,13516 23281.71,13516 23281.71,13810.17 22132.94,13810.17 22132.94,14583.13 23057.44,14583.13 23057.44,14867.17 22132.94,14867.17 22132.94,15662.39 "/>
   <polygon class="fil2" points="2204.93,17025.41 2204.93,17107.2 2410.91,17107.2 2410.91,17186.6 2204.93,17186.6 2204.93,17276.72 2432.38,17276.72 2432.38,17356.03 2116.66,17356.03 2116.66,16946.1 2432.38,16946.1 2432.38,17025.41 "/>
   <path class="fil2" d="M2691.88 17150.76c0,-115.15 100.31,-211.91 217.84,-211.91 62.11,0 119.4,26.34 159.33,68.65l-63.79 57.31c-23.93,-27.49 -57.93,-46.03 -95.54,-46.03 -68.56,0 -127.19,60.92 -127.19,131.98 0,71.58 58.63,132.44 127.19,132.44 37.61,0 71.61,-18.36 95.54,-46.01l63.79 57.29c-39.93,41.85 -97.22,68.8 -159.33,68.8 -117.53,0 -217.84,-97.37 -217.84,-212.52z"/>
   <path class="fil2" d="M3652.74 17150.76c0,-71.06 -58.54,-131.98 -127.74,-131.98 -68.59,0 -127.19,60.92 -127.19,131.98 0,71.58 58.6,132.44 127.19,132.44 69.2,0 127.74,-60.86 127.74,-132.44zm-345.6 0c0,-115.15 100.33,-211.91 217.86,-211.91 118.69,0 217.86,96.76 217.86,211.91 0,115.15 -99.17,212.52 -217.86,212.52 -117.53,0 -217.86,-97.37 -217.86,-212.52z"/>
   <path class="fil2" d="M4000.48 17150.76c0,-115.15 100.24,-211.91 217.86,-211.91 62.09,0 119.4,26.34 159.24,68.65l-63.79 57.31c-23.86,-27.49 -57.84,-46.03 -95.45,-46.03 -68.65,0 -127.19,60.92 -127.19,131.98 0,71.58 58.54,132.44 127.19,132.44 37.61,0 71.59,-18.36 95.45,-46.01l63.79 57.29c-39.84,41.85 -97.15,68.8 -159.24,68.8 -117.62,0 -217.86,-97.37 -217.86,-212.52z"/>
   <path class="fil2" d="M4961.33 17150.76c0,-71.06 -58.53,-131.98 -127.73,-131.98 -68.65,0 -127.19,60.92 -127.19,131.98 0,71.58 58.54,132.44 127.19,132.44 69.2,0 127.73,-60.86 127.73,-132.44zm-345.66 0c0,-115.15 100.33,-211.91 217.93,-211.91 118.71,0 217.86,96.76 217.86,211.91 0,115.15 -99.15,212.52 -217.86,212.52 -117.6,0 -217.93,-97.37 -217.93,-212.52z"/>
   <polygon class="fil2" points="5328.74,16946.08 5416.48,16946.08 5614.09,17211.05 5614.09,16946.08 5702.36,16946.08 5702.36,17356.08 5614.09,17356.08 5416.48,17091.11 5416.48,17356.08 5328.74,17356.08 "/>
   <path class="fil2" d="M5969.04 17295.18l50.81 -60.23c38.7,33.37 82.88,53.59 134.76,53.59 44.18,0 66.96,-20.22 66.96,-45.95 0,-29.2 -23.94,-38.22 -86.64,-52.43 -86.58,-19.7 -147.96,-44.26 -147.96,-123.57 0,-75.77 61.99,-127.74 151.51,-127.74 66.96,0 118.84,20.93 160.55,56.7l-45.95 63.24c-36.3,-29.2 -77.54,-45.33 -116.99,-45.33 -37.46,0 -60.25,19.7 -60.25,44.24 0,29.9 24.48,39.32 87.74,53.61 88.42,19.77 146.81,45.95 146.81,121.78 0,78.24 -59,130.21 -159.33,130.21 -70.97,0 -134.21,-23.95 -182.02,-68.12z"/>
   <polygon class="fil2" points="6688.67,17025.41 6560.93,17025.41 6560.93,16946.1 6904.67,16946.1 6904.67,17025.41 6776.94,17025.41 6776.94,17356.03 6688.67,17356.03 "/>
   <path class="fil2" d="M7260.23 17142.4l87.11 0c43.56,0 73.44,-22.79 73.44,-58.01 0,-35.05 -29.88,-57.84 -73.44,-57.84l-87.11 0 0 115.85zm158.69 213.68l-93.58 -133.14 -65.11 0 0 133.14 -87.74 0 0 -410 184.35 0c88.96,0 154.62,57.22 154.62,138.31 0,61.01 -36.93,108.66 -93.06,128.52l100.85 143.17 -100.33 0z"/>
   <path class="fil2" d="M7785.36 17178.82l0 -232.77 87.74 0 0 229.21c0,63.17 40.61,107.96 97.83,107.96 56.61,0 97.24,-44.79 97.24,-107.96l0 -229.21 88.42 0 0 232.77c0,108.04 -77.08,184.5 -185.66,184.5 -109.19,0 -185.57,-76.46 -185.57,-184.5z"/>
   <path class="fil2" d="M8429.21 17150.76c0,-115.15 100.3,-211.91 217.86,-211.91 62.08,0 119.39,26.34 159.3,68.65l-63.79 57.31c-23.93,-27.49 -57.9,-46.03 -95.51,-46.03 -68.59,0 -127.21,60.92 -127.21,131.98 0,71.58 58.62,132.44 127.21,132.44 37.61,0 71.58,-18.36 95.51,-46.01l63.79 57.29c-39.91,41.85 -97.22,68.8 -159.3,68.8 -117.56,0 -217.86,-97.37 -217.86,-212.52z"/>
   <path class="fil2" d="M9224.1 16882.13c-13.13,0 -20.93,9.57 -25.02,31.66l-43.56 -6.48c6.5,-52.06 27.43,-78.79 66.2,-78.79 33.36,0 59.69,30.36 78.76,30.36 13.2,0 20.86,-9.58 25.02,-31.04l43.11 6.02c-6.04,52.52 -26.97,78.7 -66.42,78.7 -33.36,0 -58.39,-30.43 -78.09,-30.43zm165.96 268.67c0,-71.06 -58.54,-131.98 -127.73,-131.98 -68.66,0 -127.19,60.92 -127.19,131.98 0,71.52 58.53,132.36 127.19,132.36 69.19,0 127.73,-60.84 127.73,-132.36zm-345.58 0c0,-115.23 100.31,-211.99 217.85,-211.99 118.71,0 217.86,96.76 217.86,211.99 0,115.15 -99.15,212.46 -217.86,212.46 -117.54,0 -217.85,-97.31 -217.85,-212.46z"/>
   <polygon class="fil2" points="9842.18,17025.41 9842.18,17107.2 10048.16,17107.2 10048.16,17186.6 9842.18,17186.6 9842.18,17276.72 10069.7,17276.72 10069.7,17356.03 9753.92,17356.03 9753.92,16946.1 10069.7,16946.1 10069.7,17025.41 "/>
   <path class="fil2" d="M10318.38 17295.18l50.81 -60.23c38.77,33.37 82.86,53.59 134.77,53.59 44.17,0 66.94,-20.22 66.94,-45.95 0,-29.2 -23.93,-38.22 -86.56,-52.43 -86.58,-19.7 -147.96,-44.26 -147.96,-123.57 0,-75.77 61.93,-127.74 151.51,-127.74 66.88,0 118.78,20.93 160.55,56.7l-45.95 63.24c-36.36,-29.2 -77.54,-45.33 -116.99,-45.33 -37.54,0 -60.31,19.7 -60.31,44.24 0,29.9 24.48,39.32 87.72,53.61 88.42,19.77 146.8,45.95 146.8,121.78 0,78.24 -58.9,130.21 -159.23,130.21 -71.04,0 -134.31,-23.95 -182.1,-68.12z"/>
   <polygon class="fil2" points="11395.42,17025.41 11395.42,17107.2 11601.39,17107.2 11601.39,17186.6 11395.42,17186.6 11395.42,17276.72 11622.85,17276.72 11622.85,17356.03 11307.15,17356.03 11307.15,16946.1 11622.85,16946.1 11622.85,17025.41 "/>
   <polygon class="fil2" points="12362.09,17025.41 12362.09,17107.2 12568.05,17107.2 12568.05,17186.6 12362.09,17186.6 12362.09,17276.72 12589.52,17276.72 12589.52,17356.03 12273.81,17356.03 12273.81,16946.1 12589.52,16946.1 12589.52,17025.41 "/>
   <polygon class="fil2" points="12868.66,16946.08 12956.4,16946.08 13154.04,17211.05 13154.04,16946.08 13242.3,16946.08 13242.3,17356.08 13154.04,17356.08 12956.4,17091.11 12956.4,17356.08 12868.66,17356.08 "/>
   <polygon class="fil2" points="13624.13,17025.41 13624.13,17107.2 13830.08,17107.2 13830.08,17186.6 13624.13,17186.6 13624.13,17276.72 13851.56,17276.72 13851.56,17356.03 13535.86,17356.03 13535.86,16946.1 13851.56,16946.1 13851.56,17025.41 "/>
   <path class="fil2" d="M14214.87 17142.4l87.19 0c43.56,0 73.45,-22.79 73.45,-58.01 0,-35.05 -29.89,-57.84 -73.45,-57.84l-87.19 0 0 115.85zm158.78 213.68l-93.68 -133.14 -65.1 0 0 133.14 -87.72 0 0 -410 184.41 0c88.97,0 154.62,57.22 154.62,138.31 0,61.01 -37,108.66 -93.06,128.52l100.77 143.17 -100.24 0z"/>
   <path class="fil2" d="M14928.63 17125.72l181.4 0 0 168.82c-41.23,42.95 -104.49,68.74 -166.03,68.74 -118.63,0 -219.57,-97.39 -219.57,-212.54 0,-115.15 100.94,-211.91 219.57,-211.91 61.54,0 124.8,25.64 166.03,68.65l-63.86 57.31c-24.48,-28.04 -64.49,-46.03 -102.17,-46.03 -69.66,0 -128.83,60.94 -128.83,131.98 0,71.6 59.17,132.44 128.83,132.44 28.18,0 56.83,-9.48 80.08,-26.16l0 -62.63 -95.45 0 0 -68.67z"/>
   <polygon class="fil2" points="15393.94,16946.08 15482.35,16946.08 15482.35,17356.08 15393.94,17356.08 "/>
   <path class="fil2" d="M16016.98 17216.98l-60.85 -149.82 -60.86 149.82 121.71 0zm30.43 74.61l-182.57 0 -26.34 64.47 -98.38 0 167.04 -410.01 98.55 0 167.03 410.01 -99.08 0 -26.25 -64.47z"/>
   <path class="fil2" d="M16403.04 17295.18l50.74 -60.23c38.77,33.37 82.86,53.59 134.85,53.59 44.16,0 66.95,-20.22 66.95,-45.95 0,-29.2 -23.93,-38.22 -86.65,-52.43 -86.58,-19.7 -147.96,-44.26 -147.96,-123.57 0,-75.77 62.02,-127.74 151.51,-127.74 66.96,0 118.87,20.93 160.57,56.7l-45.97 63.24c-36.36,-29.2 -77.45,-45.33 -116.99,-45.33 -37.46,0 -60.24,19.7 -60.24,44.24 0,29.9 24.49,39.32 87.74,53.61 88.35,19.77 146.8,45.95 146.8,121.78 0,78.24 -59,130.21 -159.33,130.21 -71.03,0 -134.21,-23.95 -182.02,-68.12z"/>
   <path class="fil2" d="M17479.48 17142.4l87.13 0c43.54,0 73.44,-22.79 73.44,-58.01 0,-35.05 -29.9,-57.84 -73.44,-57.84l-87.13 0 0 115.85zm158.78 213.68l-93.68 -133.14 -65.1 0 0 133.14 -87.72 0 0 -410 184.35 0c88.96,0 154.59,57.22 154.59,138.31 0,61.01 -36.9,108.66 -93.06,128.52l100.86 143.17 -100.24 0z"/>
   <polygon class="fil2" points="18093.47,17025.41 18093.47,17107.2 18299.42,17107.2 18299.42,17186.6 18093.47,17186.6 18093.47,17276.72 18320.89,17276.72 18320.89,17356.03 18005.2,17356.03 18005.2,16946.1 18320.89,16946.1 18320.89,17025.41 "/>
   <polygon class="fil2" points="18600.03,16946.08 18687.77,16946.08 18885.38,17211.05 18885.38,16946.08 18973.67,16946.08 18973.67,17356.08 18885.38,17356.08 18687.77,17091.11 18687.77,17356.08 18600.03,17356.08 "/>
   <path class="fil2" d="M19596.77 17150.76c0,-71.06 -58.63,-131.98 -127.74,-131.98 -68.65,0 -127.28,60.92 -127.28,131.98 0,71.58 58.63,132.44 127.28,132.44 69.11,0 127.74,-60.86 127.74,-132.44zm-345.69 0c0,-115.15 100.33,-211.91 217.95,-211.91 118.63,0 217.77,96.76 217.77,211.91 0,115.15 -99.14,212.52 -217.77,212.52 -117.62,0 -217.95,-97.37 -217.95,-212.52z"/>
   <polygon class="fil2" points="20360.36,16946.08 20193.33,17356.08 20094.86,17356.08 19927.74,16946.08 20026.82,16946.08 20144.36,17234.91 20261.98,16946.08 "/>
   <path class="fil2" d="M20777.58 16911.38l-59.17 0 69.2 -93.06 78.31 14.21 -88.34 78.85zm32.12 305.6l-60.86 -149.82 -60.77 149.82 121.63 0zm30.43 74.61l-182.58 0 -26.33 64.47 -98.38 0 167.05 -410.01 98.53 0 167.06 410.01 -99.1 0 -26.25 -64.47z"/>
   <polygon class="fil2" points="21570.51,16946.08 21403.48,17356.08 21305.01,17356.08 21137.89,16946.08 21236.97,16946.08 21354.51,17234.91 21472.04,16946.08 "/>
   <polygon class="fil2" points="21916,17025.41 21916,17107.2 22121.97,17107.2 22121.97,17186.6 21916,17186.6 21916,17276.72 22143.45,17276.72 22143.45,17356.03 21827.65,17356.03 21827.65,16946.1 22143.45,16946.1 22143.45,17025.41 "/>
   <polygon class="fil2" points="22420.2,16946.08 22508.71,16946.08 22508.71,17356.08 22420.2,17356.08 "/>
   <path class="fil2" d="M22772.3 17295.18l50.81 -60.23c38.77,33.37 82.86,53.59 134.76,53.59 44.18,0 66.97,-20.22 66.97,-45.95 0,-29.2 -23.95,-38.22 -86.65,-52.43 -86.58,-19.7 -147.98,-44.26 -147.98,-123.57 0,-75.77 62.02,-127.74 151.53,-127.74 67.03,0 118.85,20.93 160.55,56.7l-45.86 63.24c-36.39,-29.2 -77.54,-45.33 -117.1,-45.33 -37.45,0 -60.22,19.7 -60.22,44.24 0,29.9 24.47,39.32 87.72,53.61 88.44,19.77 146.89,45.95 146.89,121.78 0,78.24 -59.09,130.21 -159.39,130.21 -70.97,0 -134.22,-23.95 -182.03,-68.12z"/>
  </g>
 </g>
</svg>
